REM DIRINDEX 1\6,1\2\7,1\2\8,1\2\9,1\3\10,1\3\11,1\4\12,1\4\13,1\4\14,1\5\15,1\5\16,1\5\17
REM DIRNAME cjc041,folder01,folder02,folder03,folder04,folder05,folder06,folder07,folder08,folder09,folder10,folder11,folder12,folder13,folder14,folder15,folder16
TITLE ""
FILE "3Q_t2_0561-0576.mp3" MP3
  TRACK 01 AUDIO
    TITLE "7:cjc041_5099"
    INDEX 01 00:00:00
  TRACK 02 AUDIO
    TITLE "0:"
    INDEX 01 00:01:05
  TRACK 03 AUDIO
    TITLE "8:cjc041_5100"
    INDEX 01 00:01:64
  TRACK 04 AUDIO
    TITLE "0:"
    INDEX 01 00:03:12
  TRACK 05 AUDIO
    TITLE "9:cjc041_5101"
    INDEX 01 00:03:64
  TRACK 06 AUDIO
    TITLE "0:"
    INDEX 01 00:05:03
  TRACK 07 AUDIO
    TITLE "7:cjc041_5102"
    INDEX 01 00:06:57
  TRACK 08 AUDIO
    TITLE "0:"
    INDEX 01 00:07:64
  TRACK 09 AUDIO
    TITLE "8:cjc041_5103"
    INDEX 01 00:08:44
  TRACK 10 AUDIO
    TITLE "0:"
    INDEX 01 00:12:20
  TRACK 11 AUDIO
    TITLE "9:cjc041_5104"
    INDEX 01 00:12:69
  TRACK 12 AUDIO
    TITLE "0:"
    INDEX 01 00:14:00
  TRACK 13 AUDIO
    TITLE "7:cjc041_5105"
    INDEX 01 00:15:56
  TRACK 14 AUDIO
    TITLE "0:"
    INDEX 01 00:16:63
  TRACK 15 AUDIO
    TITLE "8:cjc041_5106"
    INDEX 01 00:17:43
  TRACK 16 AUDIO
    TITLE "0:"
    INDEX 01 00:18:66
  TRACK 17 AUDIO
    TITLE "9:cjc041_5107"
    INDEX 01 00:19:46
  TRACK 18 AUDIO
    TITLE "0:"
    INDEX 01 00:20:57
  TRACK 19 AUDIO
    TITLE "7:cjc041_5108"
    INDEX 01 00:22:32
  TRACK 20 AUDIO
    TITLE "0:"
    INDEX 01 00:23:48
  TRACK 21 AUDIO
    TITLE "8:cjc041_5109"
    INDEX 01 00:24:24
  TRACK 22 AUDIO
    TITLE "0:"
    INDEX 01 00:25:46
  TRACK 23 AUDIO
    TITLE "9:cjc041_5110"
    INDEX 01 00:26:26
  TRACK 24 AUDIO
    TITLE "0:"
    INDEX 01 00:27:43
  TRACK 25 AUDIO
    TITLE "7:cjc041_5111"
    INDEX 01 00:29:21
  TRACK 26 AUDIO
    TITLE "0:"
    INDEX 01 00:30:42
  TRACK 27 AUDIO
    TITLE "8:cjc041_5112"
    INDEX 01 00:31:12
  TRACK 28 AUDIO
    TITLE "0:"
    INDEX 01 00:33:42
  TRACK 29 AUDIO
    TITLE "9:cjc041_5113"
    INDEX 01 00:34:18
  TRACK 30 AUDIO
    TITLE "0:"
    INDEX 01 00:35:39
  TRACK 31 AUDIO
    TITLE "7:cjc041_5114"
    INDEX 01 00:37:20
  TRACK 32 AUDIO
    TITLE "0:"
    INDEX 01 00:38:33
  TRACK 33 AUDIO
    TITLE "8:cjc041_5115"
    INDEX 01 00:39:07
  TRACK 34 AUDIO
    TITLE "0:"
    INDEX 01 00:40:44
  TRACK 35 AUDIO
    TITLE "9:cjc041_5116"
    INDEX 01 00:41:26
  TRACK 36 AUDIO
    TITLE "0:"
    INDEX 01 00:42:39
  TRACK 37 AUDIO
    TITLE "7:cjc041_5117"
    INDEX 01 00:44:20
  TRACK 38 AUDIO
    TITLE "0:"
    INDEX 01 00:45:26
  TRACK 39 AUDIO
    TITLE "8:cjc041_5118"
    INDEX 01 00:46:04
  TRACK 40 AUDIO
    TITLE "0:"
    INDEX 01 00:48:48
  TRACK 41 AUDIO
    TITLE "9:cjc041_5119"
    INDEX 01 00:49:25
  TRACK 42 AUDIO
    TITLE "0:"
    INDEX 01 00:50:35
  TRACK 43 AUDIO
    TITLE "7:cjc041_5120"
    INDEX 01 00:52:16
  TRACK 44 AUDIO
    TITLE "0:"
    INDEX 01 00:53:25
  TRACK 45 AUDIO
    TITLE "8:cjc041_5121"
    INDEX 01 00:54:05
  TRACK 46 AUDIO
    TITLE "0:"
    INDEX 01 00:55:08
  TRACK 47 AUDIO
    TITLE "9:cjc041_5122"
    INDEX 01 00:55:63
  TRACK 48 AUDIO
    TITLE "0:"
    INDEX 01 00:57:03
  TRACK 49 AUDIO
    TITLE "7:cjc041_5123"
    INDEX 01 00:58:60
  TRACK 50 AUDIO
    TITLE "0:"
    INDEX 01 01:00:06
  TRACK 51 AUDIO
    TITLE "8:cjc041_5124"
    INDEX 01 01:00:57
  TRACK 52 AUDIO
    TITLE "0:"
    INDEX 01 01:01:68
  TRACK 53 AUDIO
    TITLE "9:cjc041_5125"
    INDEX 01 01:02:48
  TRACK 54 AUDIO
    TITLE "0:"
    INDEX 01 01:03:65
  TRACK 55 AUDIO
    TITLE "7:cjc041_5126"
    INDEX 01 01:05:52
  TRACK 56 AUDIO
    TITLE "0:"
    INDEX 01 01:07:00
  TRACK 57 AUDIO
    TITLE "8:cjc041_5127"
    INDEX 01 01:07:57
  TRACK 58 AUDIO
    TITLE "0:"
    INDEX 01 01:11:17
  TRACK 59 AUDIO
    TITLE "9:cjc041_5128"
    INDEX 01 01:11:72
  TRACK 60 AUDIO
    TITLE "0:"
    INDEX 01 01:13:20
  TRACK 61 AUDIO
    TITLE "7:cjc041_5129"
    INDEX 01 01:15:01
  TRACK 62 AUDIO
    TITLE "0:"
    INDEX 01 01:16:11
  TRACK 63 AUDIO
    TITLE "8:cjc041_5130"
    INDEX 01 01:16:61
  TRACK 64 AUDIO
    TITLE "0:"
    INDEX 01 01:18:19
  TRACK 65 AUDIO
    TITLE "9:cjc041_5131"
    INDEX 01 01:18:68
  TRACK 66 AUDIO
    TITLE "0:"
    INDEX 01 01:20:02
  TRACK 67 AUDIO
    TITLE "7:cjc041_5132"
    INDEX 01 01:21:53
  TRACK 68 AUDIO
    TITLE "0:"
    INDEX 01 01:23:03
  TRACK 69 AUDIO
    TITLE "8:cjc041_5133"
    INDEX 01 01:23:58
  TRACK 70 AUDIO
    TITLE "0:"
    INDEX 01 01:26:09
  TRACK 71 AUDIO
    TITLE "9:cjc041_5134"
    INDEX 01 01:26:66
  TRACK 72 AUDIO
    TITLE "0:"
    INDEX 01 01:28:12
  TRACK 73 AUDIO
    TITLE "7:cjc041_5135"
    INDEX 01 01:29:70
  TRACK 74 AUDIO
    TITLE "0:"
    INDEX 01 01:31:06
  TRACK 75 AUDIO
    TITLE "8:cjc041_5136"
    INDEX 01 01:31:59
  TRACK 76 AUDIO
    TITLE "0:"
    INDEX 01 01:34:24
  TRACK 77 AUDIO
    TITLE "9:cjc041_5137"
    INDEX 01 01:35:02
  TRACK 78 AUDIO
    TITLE "0:"
    INDEX 01 01:36:15
  TRACK 79 AUDIO
    TITLE "7:cjc041_5138"
    INDEX 01 01:37:71
  TRACK 80 AUDIO
    TITLE "0:"
    INDEX 01 01:39:19
  TRACK 81 AUDIO
    TITLE "8:cjc041_5139"
    INDEX 01 01:40:01
  TRACK 82 AUDIO
    TITLE "0:"
    INDEX 01 01:41:16
  TRACK 83 AUDIO
    TITLE "9:cjc041_5140"
    INDEX 01 01:41:67
  TRACK 84 AUDIO
    TITLE "0:"
    INDEX 01 01:43:17
  TRACK 85 AUDIO
    TITLE "7:cjc041_5141"
    INDEX 01 01:45:00
  TRACK 86 AUDIO
    TITLE "0:"
    INDEX 01 01:46:12
  TRACK 87 AUDIO
    TITLE "8:cjc041_5142"
    INDEX 01 01:46:68
  TRACK 88 AUDIO
    TITLE "0:"
    INDEX 01 01:49:24
  TRACK 89 AUDIO
    TITLE "9:cjc041_5143"
    INDEX 01 01:50:04
  TRACK 90 AUDIO
    TITLE "0:"
    INDEX 01 01:51:17
  TRACK 91 AUDIO
    TITLE "7:cjc041_5144"
    INDEX 01 01:53:00
  TRACK 92 AUDIO
    TITLE "0:"
    INDEX 01 01:54:07
  TRACK 93 AUDIO
    TITLE "8:cjc041_5145"
    INDEX 01 01:54:68
  TRACK 94 AUDIO
    TITLE "0:"
    INDEX 01 01:59:18
  TRACK 95 AUDIO
    TITLE "9:cjc041_5146"
    INDEX 01 01:59:71
  TRACK 96 AUDIO
    TITLE "0:"
    INDEX 01 02:01:05
